<?xml version="1.0" encoding="UTF-8" standalone="no"?>
<svg
   width="1594.7039"
   zoomAndPan="magnify"
   viewBox="0 0 1196.0279 1194.2013"
   height="1592.2684"
   preserveAspectRatio="xMidYMid"
   version="1.0"
   id="svg33"
   xmlns="http://www.w3.org/2000/svg"
   xmlns:svg="http://www.w3.org/2000/svg">
  <defs
     id="defs3">
    <clipPath
       id="0adcb9febf">
      <path
         d="m 81,250.41406 h 285.75 v 285.75 H 81 Z m 0,0"
         clip-rule="nonzero"
         id="path1" />
    </clipPath>
    <clipPath
       id="112a9437b3">
      <path
         d="M 223.91016,250.41406 C 144.98437,250.41406 81,314.39844 81,393.32422 c 0,78.92578 63.98437,142.91015 142.91016,142.91015 78.92578,0 142.91015,-63.98437 142.91015,-142.91015 0,-78.92578 -63.98437,-142.91016 -142.91015,-142.91016 z m 0,0"
         clip-rule="nonzero"
         id="path2" />
    </clipPath>
    <clipPath
       id="6e33dc6185">
      <path
         d="m 139.29297,329.38672 h 169.5 v 155.25 h -169.5 z m 0,0"
         clip-rule="nonzero"
         id="path3" />
    </clipPath>
  </defs>
  <rect
     x="4.7557759e-07"
     width="1196.0278"
     fill="#ffffff"
     y="-7.0344089e-07"
     height="1194.2013"
     fill-opacity="1"
     id="rect4"
     style="fill:none;stroke-width:0.922156" />
  <g
     clip-path="url(#0adcb9febf)"
     id="g6"
     style="stroke:#ffffff;stroke-opacity:1"
     transform="matrix(4,0,0,4,-298.47947,-972.64195)">
    <g
       clip-path="url(#112a9437b3)"
       id="g5"
       style="stroke:#ffffff;stroke-opacity:1">
      <path
         stroke-linecap="butt"
         transform="matrix(0.75,0,0,0.75,81.000002,250.41455)"
         fill="none"
         stroke-linejoin="miter"
         d="M 190.54688,-6.47603e-4 C 85.312501,-6.47603e-4 -2.86296e-6,85.311857 -2.86296e-6,190.54624 -2.86296e-6,295.78062 85.312501,381.09312 190.54688,381.09312 c 105.23438,0 190.54689,-85.3125 190.54689,-190.54688 0,-105.234383 -85.31251,-190.546887603 -190.54689,-190.546887603 z m 0,0"
         stroke="#000000"
         stroke-width="30"
         stroke-opacity="1"
         stroke-miterlimit="4"
         id="path5"
         style="fill:none;fill-opacity:1;stroke:#000000;stroke-opacity:1" />
    </g>
  </g>
  <g
     clip-path="url(#6e33dc6185)"
     id="g7"
     transform="matrix(4,0,0,4,-298.47947,-972.64195)"
     style="fill:#000000;fill-opacity:1">
    <path
       fill="#000000"
       d="m 153.95703,389.91406 0.0117,0.0156 0.11719,0.28515 c 4.67578,11.25 18.86328,28.92578 41.02734,51.1211 11.91016,11.92968 23.1875,22.19531 28.92969,27.32812 5.7539,-5.14062 17.0625,-15.4375 28.98437,-27.3789 22.13282,-22.16797 36.30469,-39.82813 40.97657,-51.06641 l 0.11718,-0.27734 c 1.70313,-4.21485 2.57032,-8.66407 2.57032,-13.23047 0,-19.47266 -15.89063,-35.31641 -35.42188,-35.31641 -6.97656,0 -13.39062,4.59375 -17.54297,8.44922 -6.8789,6.37891 -11.54687,14.14062 -13.73047,18.23047 l -5.95312,11.58203 -5.95313,-11.58594 c -2.17968,-4.08594 -6.84765,-11.85156 -13.73047,-18.23047 -4.15234,-3.85547 -10.5664,-8.44922 -17.53906,-8.44922 -19.53125,0 -35.42187,15.84375 -35.42187,35.31641 0,4.55859 0.85937,8.99609 2.55859,13.20703 z m 70.08594,94.71875 -3.94922,-3.42187 c -2.62109,-2.26953 -64.15625,-55.82032 -77.00391,-86.09766 l -0.0156,-0.0312 -0.13281,-0.3125 c -2.37891,-5.75 -3.58204,-11.82812 -3.58204,-18.0625 0,-26.08984 21.28907,-47.31641 47.46094,-47.31641 14.98828,0 28.28516,11.98047 37.22656,25.26954 8.9375,-13.28907 22.23438,-25.26563 37.22266,-25.26563 26.16797,0 47.46094,21.22656 47.46094,47.31641 0,6.23437 -1.20703,12.3125 -3.58594,18.0625 l -0.15234,0.35547 c -12.86328,30.28515 -74.37891,83.8125 -77,86.08203 l -3.94922,3.42187"
       fill-opacity="1"
       fill-rule="nonzero"
       id="path6"
       style="fill:#000000;fill-opacity:1" />
  </g>
</svg>
