<?xml version="1.0" encoding="UTF-8" standalone="no"?>
<svg
   width="1703.0737"
   zoomAndPan="magnify"
   viewBox="0 0 1277.3053 302.13276"
   height="402.84369"
   preserveAspectRatio="xMidYMid"
   version="1.0"
   id="svg33"
   sodipodi:docname="proveniawhite.svg"
   inkscape:version="1.4 (e7c3feb1, 2024-10-09)"
   inkscape:export-filename="Tourism app.png"
   inkscape:export-xdpi="41.666668"
   inkscape:export-ydpi="41.666668"
   xmlns:inkscape="http://www.inkscape.org/namespaces/inkscape"
   xmlns:sodipodi="http://sodipodi.sourceforge.net/DTD/sodipodi-0.dtd"
   xmlns="http://www.w3.org/2000/svg"
   xmlns:svg="http://www.w3.org/2000/svg">
  <sodipodi:namedview
     id="namedview33"
     pagecolor="#ffffff"
     bordercolor="#000000"
     borderopacity="0.25"
     inkscape:showpageshadow="2"
     inkscape:pageopacity="0.0"
     inkscape:pagecheckerboard="0"
     inkscape:deskcolor="#d1d1d1"
     inkscape:zoom="0.94218506"
     inkscape:cx="629.38803"
     inkscape:cy="673.96526"
     inkscape:window-width="1728"
     inkscape:window-height="979"
     inkscape:window-x="0"
     inkscape:window-y="38"
     inkscape:window-maximized="1"
     inkscape:current-layer="svg33"
     inkscape:export-bgcolor="#ffffff00">
    <inkscape:page
       x="0"
       y="9.4200787e-15"
       width="1277.3053"
       height="302.13275"
       id="page2"
       margin="0"
       bleed="0" />
  </sodipodi:namedview>
  <defs
     id="defs3">
    <clipPath
       id="0adcb9febf">
      <path
         d="m 81,250.41406 h 285.75 v 285.75 H 81 Z m 0,0"
         clip-rule="nonzero"
         id="path1" />
    </clipPath>
    <clipPath
       id="112a9437b3">
      <path
         d="M 223.91016,250.41406 C 144.98437,250.41406 81,314.39844 81,393.32422 c 0,78.92578 63.98437,142.91015 142.91016,142.91015 78.92578,0 142.91015,-63.98437 142.91015,-142.91015 0,-78.92578 -63.98437,-142.91016 -142.91015,-142.91016 z m 0,0"
         clip-rule="nonzero"
         id="path2" />
    </clipPath>
    <clipPath
       id="6e33dc6185">
      <path
         d="m 139.29297,329.38672 h 169.5 v 155.25 h -169.5 z m 0,0"
         clip-rule="nonzero"
         id="path3" />
    </clipPath>
    <clipPath
       id="bf53297c68">
      <rect
         x="0"
         width="922"
         y="0"
         height="303"
         id="rect3" />
    </clipPath>
  </defs>
  <rect
     x="4.4794268e-07"
     width="1265.6316"
     fill="#ffffff"
     y="-2.0361276e-06"
     height="298.55032"
     fill-opacity="1"
     id="rect4"
     style="fill:none;stroke-width:0.474305" />
  <g
     clip-path="url(#0adcb9febf)"
     id="g6"
     style="stroke:#ffffff;stroke-opacity:1"
     transform="translate(-74.619865,-243.16049)">
    <g
       clip-path="url(#112a9437b3)"
       id="g5"
       style="stroke:#ffffff;stroke-opacity:1">
      <path
         stroke-linecap="butt"
         transform="matrix(0.75,0,0,0.75,81.000002,250.41455)"
         fill="none"
         stroke-linejoin="miter"
         d="M 190.54688,-6.47603e-4 C 85.312501,-6.47603e-4 -2.86296e-6,85.311857 -2.86296e-6,190.54624 -2.86296e-6,295.78062 85.312501,381.09312 190.54688,381.09312 c 105.23438,0 190.54689,-85.3125 190.54689,-190.54688 0,-105.234383 -85.31251,-190.546887603 -190.54689,-190.546887603 z m 0,0"
         stroke="#000000"
         stroke-width="30"
         stroke-opacity="1"
         stroke-miterlimit="4"
         id="path5"
         style="fill:none;stroke:#ffffff;stroke-opacity:1" />
    </g>
  </g>
  <g
     clip-path="url(#6e33dc6185)"
     id="g7"
     transform="translate(-74.619865,-243.16049)">
    <path
       fill="#000000"
       d="m 153.95703,389.91406 0.0117,0.0156 0.11719,0.28515 c 4.67578,11.25 18.86328,28.92578 41.02734,51.1211 11.91016,11.92968 23.1875,22.19531 28.92969,27.32812 5.7539,-5.14062 17.0625,-15.4375 28.98437,-27.3789 22.13282,-22.16797 36.30469,-39.82813 40.97657,-51.06641 l 0.11718,-0.27734 c 1.70313,-4.21485 2.57032,-8.66407 2.57032,-13.23047 0,-19.47266 -15.89063,-35.31641 -35.42188,-35.31641 -6.97656,0 -13.39062,4.59375 -17.54297,8.44922 -6.8789,6.37891 -11.54687,14.14062 -13.73047,18.23047 l -5.95312,11.58203 -5.95313,-11.58594 c -2.17968,-4.08594 -6.84765,-11.85156 -13.73047,-18.23047 -4.15234,-3.85547 -10.5664,-8.44922 -17.53906,-8.44922 -19.53125,0 -35.42187,15.84375 -35.42187,35.31641 0,4.55859 0.85937,8.99609 2.55859,13.20703 z m 70.08594,94.71875 -3.94922,-3.42187 c -2.62109,-2.26953 -64.15625,-55.82032 -77.00391,-86.09766 l -0.0156,-0.0312 -0.13281,-0.3125 c -2.37891,-5.75 -3.58204,-11.82812 -3.58204,-18.0625 0,-26.08984 21.28907,-47.31641 47.46094,-47.31641 14.98828,0 28.28516,11.98047 37.22656,25.26954 8.9375,-13.28907 22.23438,-25.26563 37.22266,-25.26563 26.16797,0 47.46094,21.22656 47.46094,47.31641 0,6.23437 -1.20703,12.3125 -3.58594,18.0625 l -0.15234,0.35547 c -12.86328,30.28515 -74.37891,83.8125 -77,86.08203 l -3.94922,3.42187"
       fill-opacity="1"
       fill-rule="nonzero"
       id="path6"
       style="fill:#ffffff" />
  </g>
  <g
     transform="translate(339.38013,-1.160494)"
     id="g33">
    <g
       clip-path="url(#bf53297c68)"
       id="g32">
      <g
         fill="#000000"
         fill-opacity="1"
         id="g10">
        <g
           transform="translate(0.416587,230.40517)"
           id="g9">
          <g
             id="g8">
            <path
               d="m 32.65625,-120.26563 c 0,-5.83203 -0.484375,-10.14453 -1.453125,-12.93749 -0.96875,-2.80079 -2.328125,-4.74219 -4.078125,-5.82813 -1.75,-1.09375 -4.574219,-2.1875 -8.46875,-3.28125 -3.886719,-1.08203 -7.421875,-2.28516 -10.609375,-3.60937 L 8.28125,-151.875 h 57.859375 c 14.613281,0 27.40625,0.79688 38.375005,2.39063 10.96875,1.59375 20.53125,5.48437 28.68749,11.67187 8.16407,6.17969 12.25,15.60547 12.25,28.28125 0,10.117188 -2.41406,18.59375 -7.23437,25.4375 -4.8125,6.835938 -11.28906,11.90625 -19.42187,15.21875 -8.125,3.304688 -17.16407,4.953125 -27.10938,4.953125 -1.792969,0 -4.671875,-0.304687 -8.640625,-0.921875 -3.960937,-0.625 -7.554687,-1.519531 -10.78125,-2.6875 -3.230469,-1.164062 -4.84375,-2.53125 -4.84375,-4.09375 0,-1.394531 1.707031,-2.09375 5.125,-2.09375 h 1.75 c 9.414063,0 17.253906,-0.832031 23.515625,-2.5 6.25781,-1.675781 11.23438,-5.019531 14.92188,-10.03125 3.69531,-5.019531 5.54687,-12.234375 5.54687,-21.64063 0,-8.63281 -2.375,-15.61328 -7.125,-20.93749 -4.74219,-5.33204 -10.80469,-9.14454 -18.1875,-11.4375 -7.386719,-2.28907 -15.320312,-3.4375 -23.796875,-3.4375 -3.429687,0 -7.199219,0.19531 -11.3125,0.57812 v 111.046875 c 0,6.617187 0.425781,11.402344 1.28125,14.359375 0.851563,2.949219 2.097656,4.890625 3.734375,5.828125 1.632812,0.929687 4.316406,1.703125 8.046875,2.328125 5.050781,0.855469 9.519531,2.023438 13.40625,3.5 L 84.109375,0 H 8.28125 L 7.9375,-6.0625 11.671875,-7.109375 c 4.582031,-1.25 8.253906,-2.472656 11.015625,-3.671875 2.757812,-1.207031 5.109375,-3.015625 7.046875,-5.421875 1.945313,-2.414063 2.921875,-5.644531 2.921875,-9.6875 z m 0,0"
               id="path7"
               style="fill:#ffffff" />
          </g>
        </g>
      </g>
      <g
         fill="#000000"
         fill-opacity="1"
         id="g13">
        <g
           transform="translate(152.63971,230.40517)"
           id="g12">
          <g
             id="g11">
            <path
               d="m 44.796875,-26.9375 c 0,3.648438 0.40625,6.890625 1.21875,9.734375 0.8125,2.835937 2.773437,5.339844 5.890625,7.515625 3.113281,2.179688 7.78125,3.464844 14,3.859375 L 65.78125,0 H 5.015625 c 0,-0.625 -0.023437,-1.632812 -0.0625,-3.03125 -0.03125,-1.394531 -0.011719,-2.484375 0.0625,-3.265625 l 3.84375,-1.046875 c 4.125,-1.09375 7.078125,-2.101562 8.859375,-3.03125 1.789062,-0.9375 3.132812,-2.585938 4.03125,-4.953125 0.894531,-2.375 1.34375,-6.015625 1.34375,-10.921875 v -58.671875 c -1.011719,-1.707031 -2.875,-3.28125 -5.59375,-4.71875 -2.71875,-1.4375 -5.539062,-2.617187 -8.453125,-3.546875 -2.917969,-0.9375 -4.375,-1.367188 -4.375,-1.296875 l 0.234375,-4.078125 31.015625,-8.28125 h 6.65625 l 1.859375,21.453125 c 4.351562,-8.007813 8.882812,-13.6875 13.59375,-17.031255 4.707031,-3.34375 10.09375,-5.01562 16.15625,-5.01562 3.113281,0 5.929688,0.64844 8.453125,1.9375 2.53125,1.28125 4.515625,2.91797 5.953125,4.90625 1.4375,1.980469 2.15625,3.980469 2.15625,6 0,1.324219 -0.371094,3.117188 -1.109375,5.375 -0.742187,2.25 -1.871094,4.230469 -3.390625,5.9375 -1.511719,1.710938 -3.355469,2.5625 -5.53125,2.5625 -2.492188,0 -4.4375,-0.5625 -5.84375,-1.6875 -1.398438,-1.132812 -2.828125,-2.828125 -4.296875,-5.078125 -1.09375,-1.707031 -2.132813,-2.988281 -3.109375,-3.84375 -0.96875,-0.851563 -2.1875,-1.28125 -3.65625,-1.28125 -2.492188,0 -4.730469,0.71875 -6.71875,2.15625 -1.980469,1.4375 -3.710938,3.210937 -5.1875,5.3125 -1.480469,2.09375 -3.265625,4.890625 -5.359375,8.390625 l -1.75,2.90625 z m 0,0"
               id="path10"
               style="fill:#ffffff" />
          </g>
        </g>
      </g>
      <g
         fill="#000000"
         fill-opacity="1"
         id="g16">
        <g
           transform="translate(243.85694,230.40517)"
           id="g15">
          <g
             id="g14">
            <path
               d="m 64.03125,-108.01563 c 10.34375,0 19.769531,2.24219 28.28125,6.71875 8.51953,4.468755 15.26953,10.843755 20.25,19.125005 4.97656,8.28125 7.46875,17.902344 7.46875,28.859375 0,10.96875 -2.49219,20.671875 -7.46875,29.109375 -4.98047,8.4375 -11.63281,14.96875 -19.953125,19.59375 -8.3125,4.625 -17.40625,6.9375 -27.28125,6.9375 -9.804687,0 -18.980469,-2.3671875 -27.53125,-7.109375 C 29.242188,-9.519531 22.398438,-16.109375 17.265625,-24.546875 12.128906,-32.984375 9.5625,-42.53125 9.5625,-53.1875 c 0,-10.65625 2.488281,-20.160156 7.46875,-28.515625 4.976562,-8.363281 11.644531,-14.835937 20,-19.421875 8.363281,-4.59375 17.363281,-6.89063 27,-6.89063 z m 2.8125,101.250005 c 9.875,0 17.375,-3.535156 22.5,-10.609375 5.132812,-7.082031 7.703125,-16.378906 7.703125,-27.890625 0,-9.945313 -1.382813,-19.097656 -4.140625,-27.453125 -2.761719,-8.363281 -6.710938,-15.035156 -11.84375,-20.015625 -5.125,-4.976563 -11.03125,-7.468755 -17.71875,-7.468755 -5.917969,0 -11.152344,1.445318 -15.703125,4.32813 -4.542969,2.875 -8.136719,7.308594 -10.78125,13.296875 -2.648437,5.980469 -3.96875,13.480469 -3.96875,22.5 0,8.867187 1.398437,17.402344 4.203125,25.609375 2.800781,8.210938 6.765625,14.882812 11.890625,20.015625 5.132813,5.125 11.085937,7.6875 17.859375,7.6875 z m 0,0"
               id="path13"
               style="fill:#ffffff" />
          </g>
        </g>
      </g>
      <g
         fill="#000000"
         fill-opacity="1"
         id="g19">
        <g
           transform="translate(370.18464,230.40517)"
           id="g18">
          <g
             id="g17">
            <path
               d="m 56.453125,1.40625 c -0.929687,0.457031 -2.09375,0.6875 -3.5,0.6875 -1.480469,0 -2.648437,-0.230469 -3.5,-0.6875 l -35.6875,-85.859375 c -1.324219,-3.257813 -2.53125,-5.6875 -3.625,-7.28125 C 9.054688,-93.335938 8.007812,-94.445312 7,-95.0625 c -1.011719,-0.625 -2.449219,-1.207031 -4.3125,-1.75 -1.949219,-0.625 -3.738281,-1.285156 -5.375,-1.984375 v -6.062505 h 52.5 c 0,0.61719 0.07813,1.54688 0.234375,2.79688 0.226563,1.24219 0.34375,2.40625 0.34375,3.5 -5.054687,1.398438 -8.824219,2.757812 -11.3125,4.078125 -2.492187,1.324219 -3.734375,3.265625 -3.734375,5.828125 0,0.78125 0.191406,1.835938 0.578125,3.15625 l 23.796875,58.671875 20.0625,-48.875 c 2.175781,-5.363281 3.265625,-9.484375 3.265625,-12.359375 -0.230469,-2.726562 -1.53125,-4.8125 -3.90625,-6.25 -2.367187,-1.4375 -6.117187,-2.773438 -11.25,-4.015625 -0.08594,-0.46875 -0.125,-1.363281 -0.125,-2.687505 0,-0.9375 0.01953,-1.7539 0.0625,-2.45312 0.03906,-0.69531 0.0625,-1.16016 0.0625,-1.39063 h 43.390625 c 0.15625,1.32422 0.23438,3.30469 0.23438,5.937505 -1.48047,0.867187 -2.91797,1.570313 -4.3125,2.109375 -2.26172,1.011719 -4.10938,1.964844 -5.54688,2.859375 -1.4375,0.898437 -2.953125,2.277344 -4.546875,4.140625 -1.59375,1.867188 -3.09375,4.351562 -4.5,7.453125 z m 0,0"
               id="path16"
               style="fill:#ffffff" />
          </g>
        </g>
      </g>
      <g
         fill="#000000"
         fill-opacity="1"
         id="g22">
        <g
           transform="translate(480.88173,230.40517)"
           id="g21">
          <g
             id="g20">
            <path
               d="m 30.21875,-61.359375 c -0.08594,0.78125 -0.125,1.914063 -0.125,3.390625 0,9.792969 1.765625,17.976562 5.296875,24.546875 3.539063,6.574219 8.285156,11.4375 14.234375,14.59375 5.957031,3.148437 12.628906,4.71875 20.015625,4.71875 9.789063,0 19.238281,-2.800781 28.34375,-8.40625 L 101.35938,-19.25 c -1.867192,4.511719 -4.996099,8.402344 -9.39063,11.671875 -4.386719,3.261719 -9.359375,5.730469 -14.921875,7.40625 -5.5625,1.664063 -10.949219,2.5 -16.15625,2.5 -9.804687,0 -18.609375,-2.2929688 -26.421875,-6.875 -7.8125,-4.59375 -13.917969,-11.007813 -18.3125,-19.25 -4.398438,-8.238281 -6.59375,-17.6875 -6.59375,-28.34375 0,-10.8125 2.367188,-20.472656 7.109375,-28.984375 4.75,-8.519531 11.066406,-15.128906 18.953125,-19.82813 7.894531,-4.70703 16.351562,-7.0625 25.375,-7.0625 7.394531,0 14.066406,1.5 20.015625,4.5 5.945313,2.99219 10.785156,7.187505 14.515625,12.593755 3.726562,5.40625 6.09766,11.605469 7.10938,18.59375 0.86328,3.585937 1.29687,6.890625 1.29687,9.921875 v 1.046875 z m 41.984375,-7.46875 c 3.425781,-0.144531 6.300781,-0.765625 8.625,-1.859375 -0.542969,-9.25 -2.699219,-16.476562 -6.46875,-21.6875 -3.773437,-5.21875 -9.117187,-7.82813 -16.03125,-7.82813 -5.0625,0 -9.558594,1.523442 -13.484375,4.562505 -3.929688,3.03125 -7.09375,7.058594 -9.5,12.078125 -2.40625,5.011719 -3.964844,10.507812 -4.671875,16.484375 z m 0,0"
               id="path19"
               style="fill:#ffffff" />
          </g>
        </g>
      </g>
      <g
         fill="#000000"
         fill-opacity="1"
         id="g25">
        <g
           transform="translate(593.21192,230.40517)"
           id="g24">
          <g
             id="g23">
            <path
               d="m 44.90625,-25.890625 c 0,6.6875 1.691406,11.53125 5.078125,14.53125 3.382813,2.992187 8.535156,4.835937 15.453125,5.53125 0,1.167969 -0.04297,2.335937 -0.125,3.5 C 65.238281,-1.160156 65.203125,-0.382812 65.203125,0 H 5.125 L 5.015625,-3.734375 c 0,-1.238281 0.035156,-2.09375 0.109375,-2.5625 4.507812,-1.09375 7.910156,-2.066406 10.203125,-2.921875 2.300781,-0.851562 4.191406,-2.25 5.671875,-4.1875 1.476562,-1.945312 2.21875,-4.671875 2.21875,-8.171875 v -63.21875 c -0.9375,-1.789063 -2.773438,-3.40625 -5.5,-4.84375 C 15,-91.078125 12.144531,-92.28125 9.15625,-93.25 6.164062,-94.226562 4.671875,-94.675781 4.671875,-94.59375 l 0.34375,-3.96875 31.84375,-7.9375 7.109375,-0.46875 1.296875,18.90625 c 4.269531,-5.757812 9.726563,-10.523438 16.375,-14.29688 6.65625,-3.76953 13.832031,-5.65625 21.53125,-5.65625 11.269531,0 20.015625,3.1875 26.234375,9.562505 6.22656,6.375 9.61328,15.902344 10.15625,28.578125 0.22656,4.980469 0.34375,10.074219 0.34375,15.28125 v 26.015625 c 0,5.679687 0.34766,9.804687 1.04688,12.375 0.70703,2.5625 1.8164,4.328125 3.32812,5.296875 1.51953,0.96875 4.06641,2 7.64062,3.09375 l 4.90625,1.515625 c 0.0703,0.46875 0.10938,1.324219 0.10938,2.5625 L 136.82812,0 H 79.3125 c 0,-0.46875 -0.04297,-1.265625 -0.125,-2.390625 -0.07422,-1.125 -0.109375,-2.269531 -0.109375,-3.4375 0.550781,-0.238281 2.109375,-0.707031 4.671875,-1.40625 4.125,-1.164063 7.332031,-2.410156 9.625,-3.734375 2.289062,-1.320312 3.671875,-3.457031 4.140625,-6.40625 0.382813,-2.257812 0.578125,-5.253906 0.578125,-8.984375 V -52.375 c 0,-10.34375 -0.371094,-18.3125 -1.109375,-23.90625 -0.730469,-5.601562 -2.671875,-10.191406 -5.828125,-13.765625 -3.148438,-3.582031 -8.21875,-5.375 -15.21875,-5.375 -5.523438,0 -10.828125,1.601563 -15.921875,4.796875 -5.09375,3.1875 -10.132813,7.421875 -15.109375,12.703125 z m 0,0"
               id="path22"
               style="fill:#ffffff" />
          </g>
        </g>
      </g>
      <g
         fill="#000000"
         fill-opacity="1"
         id="g28">
        <g
           transform="translate(733.1872,230.40517)"
           id="g27">
          <g
             id="g26">
            <path
               d="m 34.171875,-160.5 c 3.738281,0 6.925781,1.32422 9.5625,3.96875 2.644531,2.63672 3.96875,5.82422 3.96875,9.5625 0,3.80469 -1.324219,7.01172 -3.96875,9.625 -2.636719,2.60547 -5.824219,3.90625 -9.5625,3.90625 -3.804687,0 -7.011719,-1.30078 -9.625,-3.90625 -2.605469,-2.61328 -3.90625,-5.82031 -3.90625,-9.625 0,-3.73828 1.300781,-6.92578 3.90625,-9.5625 2.613281,-2.64453 5.820313,-3.96875 9.625,-3.96875 z m -9.328125,75.703125 c -1.011719,-1.789063 -2.898438,-3.40625 -5.65625,-4.84375 -2.761719,-1.4375 -5.601562,-2.640625 -8.515625,-3.609375 -2.917969,-0.976562 -4.375,-1.425781 -4.375,-1.34375 l 0.234375,-4.09375 32.78125,-7.92188 7.234375,-0.46875 v 81.42188 c 0,2.71875 0.289063,5.289062 0.875,7.703125 0.582031,2.40625 2.367187,4.855469 5.359375,7.34375 2.988281,2.492187 7.710938,4.085937 14.171875,4.78125 0,2.5625 -0.03906,4.507813 -0.109375,5.828125 H 5.953125 C 5.796875,-1.394531 5.71875,-3.335938 5.71875,-5.828125 l 3.265625,-0.9375 c 3.414063,-0.9375 6.171875,-1.867187 8.265625,-2.796875 2.101562,-0.9375 3.894531,-2.316406 5.375,-4.140625 1.476562,-1.832031 2.21875,-4.300781 2.21875,-7.40625 z m 0,0"
               id="path25"
               style="fill:#ffffff" />
          </g>
        </g>
      </g>
      <g
         fill="#000000"
         fill-opacity="1"
         id="g31">
        <g
           transform="translate(802.47492,230.40517)"
           id="g30">
          <g
             id="g29">
            <path
               d="m 73.484375,-71.03125 c 0,-5.832031 -0.527344,-10.769531 -1.578125,-14.8125 -1.042969,-4.050781 -3.140625,-7.316406 -6.296875,-9.796875 -3.148437,-2.488281 -7.636719,-3.734375 -13.46875,-3.734375 -2.023437,0 -4.511719,0.429688 -7.46875,1.28125 -2.949219,0.855469 -5.53125,2.078125 -7.75,3.671875 -2.21875,1.59375 -3.328125,3.4375 -3.328125,5.53125 0,0.867187 0.15625,1.703125 0.46875,2.515625 0.3125,0.8125 0.816406,1.84375 1.515625,3.09375 0.695313,1.167969 1.203125,2.179688 1.515625,3.03125 0.3125,0.855469 0.46875,1.75 0.46875,2.6875 0,3.105469 -0.996094,5.6875 -2.984375,7.75 -1.980469,2.0625 -4.527344,3.09375 -7.640625,3.09375 -3.886719,0 -6.976562,-1.4375 -9.265625,-4.3125 -2.292969,-2.882812 -3.4375,-6.347656 -3.4375,-10.390625 0,-6.0625 2.367187,-11.078125 7.109375,-15.046875 4.75,-3.96875 10.484375,-6.88281 17.203125,-8.75 6.726563,-1.86328 13.007813,-2.79688 18.84375,-2.79688 10.96875,0 19.148437,1.61719 24.546875,4.84375 5.40625,3.230474 8.984375,7.937505 10.734375,14.125005 1.75,6.179687 2.625,14.824219 2.625,25.9375 l -0.234375,5.84375 c -0.07422,1.710937 -0.171875,4.546875 -0.296875,8.515625 -0.117187,3.960938 -0.171875,7.609375 -0.171875,10.953125 0,17.5 1.828125,26.25 5.48438,26.25 2.64453,0 6.0664,-2.679687 10.26562,-8.046875 l 4.90625,5.25 C 111.82031,-8.75 108.4375,-4.570312 105.09375,-1.8125 101.75,0.945312 97.359375,2.328125 91.921875,2.328125 86.785156,2.328125 82.5625,0.71875 79.25,-2.5 c -3.304688,-3.226562 -5.105469,-7.410156 -5.40625,-12.546875 -4.980469,5.449219 -10.5625,9.710937 -16.75,12.78125 -6.179688,3.0625 -12.730469,4.59375 -19.65625,4.59375 -4.8125,0 -9.261719,-0.875 -13.34375,-2.625 -4.085938,-1.75 -7.355469,-4.375 -9.8125,-7.875 -2.449219,-3.5 -3.671875,-7.695313 -3.671875,-12.59375 0,-7.382813 2.835937,-13.523437 8.515625,-18.421875 5.675781,-4.90625 12.207031,-8.640625 19.59375,-11.203125 7.394531,-2.5625 16.414062,-5.128906 27.0625,-7.703125 0.9375,-0.15625 3.503906,-0.773438 7.703125,-1.859375 z m 0,17.953125 c -1.167969,0.398437 -2.648437,0.867187 -4.4375,1.40625 -6.6875,2.179687 -12.402344,4.261719 -17.140625,6.25 -4.742188,1.980469 -8.980469,4.640625 -12.71875,7.984375 -3.730469,3.34375 -5.59375,7.273438 -5.59375,11.78125 0,4.585938 1.257812,8.199219 3.78125,10.84375 2.53125,2.648438 6.09375,3.96875 10.6875,3.96875 4.582031,0 9.007812,-1.144531 13.28125,-3.4375 4.28125,-2.300781 8.328125,-5.316406 12.140625,-9.046875 z m 0,0"
               id="path28"
               style="fill:#ffffff" />
          </g>
        </g>
      </g>
    </g>
  </g>
  <rect
     style="fill:none;fill-opacity:0;stroke-width:0.75"
     id="rect33"
     width="902.12109"
     height="266.36444"
     x="375.1842"
     y="35.768311" />
</svg>
